<svg xmlns="http://www.w3.org/2000/svg" xmlns:xlink="http://www.w3.org/1999/xlink" width="52" height="52" viewBox="0 0 52 52">
  <defs>
    <clipPath id="clip-path">
      <rect width="32.001" height="32" fill="none"/>
    </clipPath>
  </defs>
  <g id="Group_182" data-name="Group 182" transform="translate(-1082 -1458)">
    <g id="Group_179" data-name="Group 179" transform="translate(257 -86)">
      <g id="Group_172" data-name="Group 172" transform="translate(824.773 1621.773)">
        <rect id="Rectangle_133" data-name="Rectangle 133" width="52" height="52" transform="translate(0.227 -77.773)" fill="#4ed5ac"/>
      </g>
    </g>
    <g id="Group_178" data-name="Group 178" transform="translate(796 892)">
      <g id="Rectangle_167" data-name="Rectangle 167" transform="translate(290 572)" fill="none" stroke="#fff" stroke-width="2">
        <rect width="44" height="40" rx="7" stroke="none"/>
        <rect x="1" y="1" width="42" height="38" rx="6" fill="none"/>
      </g>
      <g id="Icon_-_Refresh" data-name="Icon - Refresh" transform="translate(296 576)" clip-path="url(#clip-path)">
        <rect id="Square" width="32" height="32" fill="none"/>
        <path id="Icon_-_Refresh-2" data-name="Icon - Refresh" d="M239.346-6869.473a29.32,29.32,0,0,1-3.5-3.511c-.839-.929-2.615-2.55-2.887-3.81-.294-1.362,1.474-2.547,2.257-3.4a25.89,25.89,0,0,1,3.937-3.665c.957-.682,2.288-1.025,3.082.141.631.928.464,2.49.388,3.782a7.155,7.155,0,0,0,3.255-.33c2.313-1.128-1.946-4.721-3.03-5.6-.763-.617-.084-1.8.755-1.823,4.7-.151,10.777,3.613,9.88,8.973-.862,5.148-6.323,6.33-10.782,6.62-.013,1.55-.61,3.253-1.873,3.252A2.5,2.5,0,0,1,239.346-6869.473Zm.392-12.131c-.351.318-.722.616-1.07.937-.683.629-1.312,1.3-1.939,1.984-.256.279-1.23,1.28-1.5,1.489a5.853,5.853,0,0,1,.458.644c.357.486.725.96,1.117,1.419.54.634,1.111,1.24,1.695,1.835a11.612,11.612,0,0,0,1.944,1.94q.033.221.066.442a3.36,3.36,0,0,0,.1-1.165,3.825,3.825,0,0,0-.1-.738.991.991,0,0,1,.252-.979,1.015,1.015,0,0,1,.778-.372c3.321-.122,8.024-.305,9.549-3.928,1.312-3.118-1.167-5.626-4.026-6.774,1.4,1.589,2.381,3.5,1.236,5.272-1.357,2.1-4.584,1.833-6.76,1.736a1.092,1.092,0,0,1-1.068-1.068,20.166,20.166,0,0,0-.033-2.752c-.067-.353-.1-.486-.164-.486C240.184-6882.168,240.056-6881.892,239.737-6881.6Zm-18.073-8.56c.861-5.149,6.323-6.33,10.782-6.62.018-2.066,1.071-4.4,3.358-2.62a29.382,29.382,0,0,1,3.5,3.51c.84.929,2.615,2.551,2.887,3.811.294,1.361-1.474,2.547-2.257,3.4a25.865,25.865,0,0,1-3.937,3.666c-.957.682-2.288,1.024-3.082-.142-.631-.927-.464-2.489-.388-3.782a7.159,7.159,0,0,0-3.255.33c-2.314,1.128,1.945,4.722,3.029,5.6.763.617.085,1.8-.755,1.823-.091,0-.183,0-.275,0C226.61-6881.187,220.784-6884.908,221.664-6890.163Zm12.876-6.634a3.866,3.866,0,0,0,.1.738.993.993,0,0,1-.251.98,1.017,1.017,0,0,1-.778.372c-3.322.122-8.025.305-9.549,3.927-1.312,3.118,1.167,5.626,4.025,6.775-1.4-1.59-2.381-3.5-1.236-5.272,1.357-2.1,4.584-1.833,6.76-1.736a1.092,1.092,0,0,1,1.067,1.068,20.152,20.152,0,0,0,.034,2.752c.162.861.155.411.7-.078.352-.318.721-.616,1.071-.937.683-.628,1.312-1.3,1.938-1.984.256-.279,1.23-1.28,1.5-1.489a5.734,5.734,0,0,1-.458-.643c-.358-.487-.726-.96-1.117-1.419-.54-.634-1.111-1.241-1.695-1.835a11.654,11.654,0,0,0-1.945-1.94q-.032-.221-.066-.443A3.372,3.372,0,0,0,234.539-6896.8Z" transform="translate(-221.574 6900.037)" fill="#fff" stroke="rgba(0,0,0,0)" stroke-width="1"/>
      </g>
    </g>
  </g>
</svg>
