<svg xmlns="http://www.w3.org/2000/svg" xmlns:xlink="http://www.w3.org/1999/xlink" width="32.001" height="32" viewBox="0 0 32.001 32">
  <defs>
    <clipPath id="clip-path">
      <rect width="32.001" height="32" fill="none"/>
    </clipPath>
  </defs>
  <g id="Icon_-_Edit" data-name="Icon - Edit" clip-path="url(#clip-path)">
    <rect id="Square" width="32" height="32" transform="translate(0 0)" fill="none"/>
    <path id="Icon_-_Edit-2" data-name="Icon - Edit" d="M105.953-5848.351c-3.224-.061-7.741.406-7.939-3.932-.074-1.625-.011-3.268-.016-4.894l-.053-15.661c-.007-2.16.522-4.387,3.059-4.741a35.052,35.052,0,0,1,5.156-.2c.689.007,1.374.015,2.045.006,2.728-.036,5.457-.043,8.185-.04a1.065,1.065,0,0,1,0,2.128q-4.092-.006-8.185.04-1.838.023-3.676.066c-.3.007-.661-.014-1.05-.034a6.45,6.45,0,0,0-2.487.17c-1.427.593-.915,3.714-.911,4.9q.024,7.192.049,14.385c0,1.268-.119,2.609.013,3.872.193,1.838,2.178,1.808,3.8,1.778.335-.006.655-.013.94,0,1.843.065,3.69.049,5.534.021,1.658-.026,3.324-.011,4.99,0,2.683.024,5.368.05,8.034-.1,1.721-.1,4.178.159,4.3-2.049.036-.631-.012-1.278-.018-1.91q-.055-5.851-.109-11.7a1.064,1.064,0,0,1,2.128,0c.043,4.577.317,9.208.129,13.78-.171,4.144-4.674,4.1-7.994,4.054-.353,0-.693-.01-1.012-.009-3.8,0-7.6.092-11.4.092Q107.714-5848.32,105.953-5848.351Zm1.6-9.283a.88.88,0,0,1-.282-.779c.171-1.914.037-4.21,1.286-5.821a13.17,13.17,0,0,1,1.1-1.138l5.112-5.148c2.833-2.854,5.553-5.929,8.55-8.611,2.119-1.9,4.081-.352,5.62,1.326a3.179,3.179,0,0,1-.193,4.718c-3.175,3.294-6.5,6.454-9.747,9.677-1.341,1.332-2.673,2.671-4.023,3.994-1.877,1.839-4.131,1.844-6.64,2.068-.038,0-.074,0-.109,0A.856.856,0,0,1,107.551-5857.634Zm16.019-18.735-8.965,9.03-3.561,3.587a6.132,6.132,0,0,0-1.554,4.2,5.949,5.949,0,0,0,3.593-.992c.343-.279.645-.641.958-.951q2.2-2.186,4.4-4.372l8.5-8.439c1.1-1.095.622-2.222-.639-3.123a1.527,1.527,0,0,0-.883-.335C124.68-5877.759,124.167-5876.971,123.57-5876.369Z" transform="translate(-97.943 5880.004)" fill="#4ed5ac" stroke="rgba(0,0,0,0)" stroke-width="1"/>
  </g>
</svg>
