<svg xmlns="http://www.w3.org/2000/svg" xmlns:xlink="http://www.w3.org/1999/xlink" width="52" height="52" viewBox="0 0 52 52">
  <defs>
    <clipPath id="clip-path">
      <rect width="32" height="32" fill="none"/>
    </clipPath>
  </defs>
  <g id="Group_181" data-name="Group 181" transform="translate(-1080 -1612)">
    <g id="Group_174" data-name="Group 174" transform="translate(255 68)">
      <g id="Group_172" data-name="Group 172" transform="translate(824.773 1621.773)">
        <rect id="Rectangle_133" data-name="Rectangle 133" width="52" height="52" transform="translate(0.227 -77.773)" fill="#313131"/>
      </g>
    </g>
    <g id="Icon_-_Fix" data-name="Icon - Fix" transform="translate(1090 1622)" clip-path="url(#clip-path)">
      <rect id="Square" width="32" height="32" transform="translate(0)" fill="none"/>
      <path id="Icon_-_Fix-2" data-name="Icon - Fix" d="M1962.036-1486.791c3-3.842-1.7-7.2-4.21-9.76-2.827-2.883-6.048-5.68-8.585-8.854.909-1.642,1.6-3.443.893-5.308a12.3,12.3,0,0,0-4.271-4.975c-2.187-1.647-8-3.078-7.509,1.524.235,2.192,3.288,3.141,3.135,5.279-.14,1.971-2.35,2.254-3.612,1.333-.864-.63-1.385-1.638-2.358-2.134a3.129,3.129,0,0,0-4.074.849c-.8,1.351-.39,3.411.262,4.738a13.287,13.287,0,0,0,5.274,5.518c2.086,1.108,4.1.465,6.009-.576,3.219,2.571,6.056,5.84,8.979,8.707,2.4,2.35,6.105,7.344,9.706,4.051a1.125,1.125,0,0,0,.2-.181A1.151,1.151,0,0,0,1962.036-1486.791Zm-5.891-2.568-4.407-4.321a94.122,94.122,0,0,0-8.111-7.69,1.048,1.048,0,0,0-1.081,0c-1.11.656-2.332,1.45-3.676,1.205a6.419,6.419,0,0,1-3.039-2.025c-.931-.92-3.971-4.334-2.1-5.4,1.066-.611,1.936,1.016,2.73,1.66a5.157,5.157,0,0,0,1.774.97,3.915,3.915,0,0,0,4.06-1.141,3.871,3.871,0,0,0,1.2-3.8,5.093,5.093,0,0,0-1.03-2.036c-.473-.586-1.848-1.423-1.941-2.187-.222-1.821,2.224-.941,2.921-.592a11.016,11.016,0,0,1,2.765,2.152,7.589,7.589,0,0,1,1.953,2.653c.477,1.442-.428,2.87-1.133,4.062a1.048,1.048,0,0,0,0,1.082,92.52,92.52,0,0,0,7.566,7.985l4.273,4.357c1.145,1.168,2.983,2.574,1.488,4.333C1958.748-1486.489,1957.256-1488.268,1956.145-1489.358Z" transform="translate(-1931.004 1517.27)" fill="#f6f6f6"/>
    </g>
  </g>
</svg>
