<svg xmlns="http://www.w3.org/2000/svg" xmlns:xlink="http://www.w3.org/1999/xlink" width="51" height="50" viewBox="0 0 51 50">
  <defs>
    <clipPath id="clip-path">
      <rect width="31.164" height="32" fill="none"/>
    </clipPath>
  </defs>
  <g id="forward-arrow-green" transform="translate(-1081 -1725)">
    <g id="Path_1057" data-name="Path 1057" transform="translate(1081 1725)" fill="#1dc622">
      <path d="M 44 49 L 1 49 L 1 1 L 44 1 C 47.30841064453125 1 50 3.691590070724487 50 7 L 50 43 C 50 46.30841064453125 47.30841064453125 49 44 49 Z" stroke="none"/>
      <path d="M 2 2 L 2 48 L 44 48 C 46.75701141357422 48 49 45.75701141357422 49 43 L 49 7 C 49 4.242988586425781 46.75701141357422 2 44 2 L 2 2 M 0 0 L 44 0 C 47.86598968505859 0 51 3.134010314941406 51 7 L 51 43 C 51 46.86598968505859 47.86598968505859 50 44 50 L 0 50 L 0 0 Z" stroke="none" fill="#1dc622"/>
    </g>
    <g id="Icon_-_Forward" data-name="Icon - Forward" transform="translate(1090.918 1734)" clip-path="url(#clip-path)">
      <path id="Icon_-_Forward-2" data-name="Icon - Forward" d="M2255.91-2083.459a14.261,14.261,0,0,0-2.064-3.241c-.72-1.061-1.49-2.088-2.289-3.09a74.764,74.764,0,0,0-5.045-5.843c-1.183-1.2-2.98-1.923-4.066-.148a7.551,7.551,0,0,0-.593,4.635,31.6,31.6,0,0,0-4.421.244,19.345,19.345,0,0,0-5.459,1.889,12.15,12.15,0,0,0-6.97,8.786c-1.471,8.288,6.938,15.769,14.866,15.365a1.081,1.081,0,0,0,.755-1.824,33.983,33.983,0,0,1-3.923-4.414c-1.332-1.709-3.291-3.952-1.654-6.12,1.335-1.768,4.673-1.611,7.034-1.459.023,1.089.013,2.179.017,3.269.005,1.106-.209,2.588.3,3.614.9,1.815,2.809,1.365,4.054.3a44.435,44.435,0,0,0,5.736-6.018c.944-1.173,1.9-2.32,2.883-3.463A2.58,2.58,0,0,0,2255.91-2083.459Zm-2.348.976c-.125.312-.617.685-.84.945-.633.738-1.232,1.5-1.84,2.263a49.773,49.773,0,0,1-3.337,3.811c-.623.634-1.26,1.254-1.917,1.851-.375.341-.521.683-1.02.457-.552-.249-.357-.8-.365-1.344-.027-1.729.02-3.456-.056-5.184a1.094,1.094,0,0,0-1.068-1.068c-3.355-.175-8.4-.557-10.23,2.937-1.252,2.389-.315,4.725,1.161,6.729.964,1.309,1.967,2.632,3.057,3.865-6.055-1.235-11.622-7.228-9.778-13.6.951-3.289,3.4-5.32,6.428-6.68,3.124-1.405,6.021-1.391,9.362-1.543a1.021,1.021,0,0,0,.8-.414,1.012,1.012,0,0,0,.229-.939c-.208-.9-.591-3.356.071-4.079.344-.375,1.069.677,1.422,1.078q.838.951,1.677,1.9c1.124,1.278,2.241,2.566,3.273,3.92.921,1.208,2.5,2.9,2.961,4.358C2253.7-2082.763,2253.767-2083,2253.563-2082.484Z" transform="translate(-2224.835 2096.848)" fill="#f6f6f6"/>
    </g>
  </g>
</svg>
