<svg xmlns="http://www.w3.org/2000/svg" xmlns:xlink="http://www.w3.org/1999/xlink" width="32" height="32" viewBox="0 0 32 32">
  <defs>
    <clipPath id="clip-path">
      <rect width="32" height="32" fill="none"/>
    </clipPath>
  </defs>
  <g id="Icon_-_Heart" data-name="Icon - Heart" clip-path="url(#clip-path)">
    <rect id="Square" width="32" height="32" fill="none"/>
    <path id="Icon_-_Heart-2" data-name="Icon - Heart" d="M2550.888-1077.312c-4.418-1.68-7.83,1.144-10.642,4.165a24.176,24.176,0,0,0-3.722-3.435,7.773,7.773,0,0,0-5.059-1.109c-3.324.22-5.421,3.081-6.637,5.946-1.547,3.644.223,7.206,2.559,10.043a88.322,88.322,0,0,0,9.349,9.266,5.39,5.39,0,0,0,5.245,1.063c2.1-.733,3.841-2.929,5.4-4.427,3.318-3.183,7.922-6.933,8.768-11.717C2556.767-1071.006,2554.32-1076.007,2550.888-1077.312Zm2.956,10.323c-1.106,3.282-4.007,5.814-6.406,8.185q-1.878,1.857-3.823,3.645c-1.559,1.432-3.358,2.824-5.385,1.229-2.426-2.177-4.789-4.427-7.057-6.767-2.124-2.191-4.9-4.92-4.849-8.212.036-2.615,2.38-6.377,5.142-6.669,3.592-.38,5.835,2.3,8.032,4.747a1.064,1.064,0,0,0,1.494,0c2.279-2.544,4.91-5.589,8.706-4.652,1.535.379,2.418,1.766,3.191,3.031A6.153,6.153,0,0,1,2553.844-1066.989Z" transform="translate(-2524.246 1080.814)" fill="red"/>
  </g>
</svg>
