<?xml version="1.0" encoding="utf-8"?>
<!-- Generator: Adobe Illustrator 25.4.1, SVG Export Plug-In . SVG Version: 6.00 Build 0)  -->
<svg version="1.1" id="Layer_1" xmlns="http://www.w3.org/2000/svg" xmlns:xlink="http://www.w3.org/1999/xlink" x="0px" y="0px"
	 viewBox="0 0 305.61 204.26" style="enable-background:new 0 0 305.61 204.26;" xml:space="preserve">
<style type="text/css">
	.st0{stroke:#000000;stroke-width:4.3929;stroke-miterlimit:10;}
	.st1{fill:#4ED5AC;}
	.st2{fill:#FFFFFF;}
	.st3{stroke:#000000;stroke-width:1.294;stroke-miterlimit:10;}
	.st4{fill:#35C479;}
</style>
<path class="st0" d="M298.45,198.65H84.28c-0.59,0-1.07-0.48-1.07-1.07v-46.63c0-0.59,0.48-1.07,1.07-1.07h214.17
	c0.59,0,1.07,0.48,1.07,1.07v46.63C299.52,198.17,299.04,198.65,298.45,198.65z"/>
<path class="st1" d="M126.47,124.52c3.71,2.37,9.96,4.5,19,4.5c16.75,0,21.94-10.67,21.79-18.68c-0.15-13.49-12.3-19.27-24.9-19.27
	h-7.26v-9.78h7.26c9.49,0,21.49-4.89,21.49-16.31c0-7.71-4.89-14.53-16.9-14.53c-7.71,0-14.74,3.14-18.89,6.11l-5.13-8.55
	c5.04-3.71,16.17-8.09,26.54-8.09c18.97,0,27.57,11.27,27.57,22.98c0,9.93-5.93,18.38-17.79,22.68v0.3
	c11.86,2.37,21.49,11.27,21.49,24.75c0,15.42-12.01,28.91-35.13,28.91c-10.82,0-20.54-3.72-25.28-6.83L126.47,124.52z"/>
<g>
	<path class="st2" d="M100.39,156.19h4.74v32.72h15.68v3.97h-20.41V156.19z"/>
	<path class="st2" d="M155.31,174.15c0,12.63-7.68,19.32-17.04,19.32c-9.69,0-16.49-7.51-16.49-18.62
		c0-11.65,7.24-19.27,17.04-19.27C148.83,155.59,155.31,163.26,155.31,174.15z M126.84,174.75c0,7.84,4.25,14.86,11.7,14.86
		c7.51,0,11.76-6.91,11.76-15.24c0-7.3-3.81-14.92-11.7-14.92C130.76,159.45,126.84,166.69,126.84,174.75z"/>
	<path class="st2" d="M166.2,156.19v21.72c0,8.22,3.65,11.7,8.55,11.7c5.44,0,8.93-3.59,8.93-11.7v-21.72h4.79v21.39
		c0,11.27-5.93,15.9-13.88,15.9c-7.51,0-13.17-4.3-13.17-15.68v-21.61H166.2z"/>
	<path class="st2" d="M196.68,192.88v-36.69h5.17l11.76,18.56c2.72,4.3,4.85,8.17,6.59,11.92l0.11-0.05
		c-0.44-4.9-0.54-9.36-0.54-15.08v-15.35h4.46v36.69h-4.79l-11.65-18.62c-2.56-4.08-5.01-8.27-6.86-12.25l-0.16,0.05
		c0.27,4.63,0.38,9.04,0.38,15.13v15.68H196.68z"/>
	<path class="st2" d="M260.42,191.25c-2.12,0.76-6.31,2.01-11.27,2.01c-5.55,0-10.13-1.42-13.72-4.84
		c-3.16-3.05-5.12-7.95-5.12-13.66c0.05-10.94,7.57-18.94,19.87-18.94c4.25,0,7.57,0.93,9.14,1.69l-1.14,3.87
		c-1.96-0.87-4.41-1.58-8.11-1.58c-8.93,0-14.75,5.55-14.75,14.75c0,9.31,5.61,14.81,14.15,14.81c3.1,0,5.23-0.44,6.32-0.98v-10.94
		h-7.46v-3.81h12.09V191.25z"/>
	<path class="st2" d="M286.66,175.68H272.4v13.23h15.9v3.97h-20.63v-36.69h19.81v3.97H272.4v11.6h14.26V175.68z"/>
</g>
<path class="st3" d="M8.63,200.19H6.25c-0.74,0-1.34-0.6-1.34-1.34V20.73c0-0.74,0.6-1.34,1.34-1.34h2.38c0.74,0,1.34,0.6,1.34,1.34
	v178.12C9.97,199.59,9.37,200.19,8.63,200.19z"/>
<path class="st1" d="M19.44,187.59H16.7c-1.73,0-3.13-1.4-3.13-3.13V35.12c0-1.73,1.4-3.13,3.13-3.13h2.74
	c1.73,0,3.13,1.4,3.13,3.13v149.33C22.57,186.19,21.17,187.59,19.44,187.59z"/>
<path class="st1" d="M32.22,187.59h-2.74c-1.73,0-3.13-1.4-3.13-3.13V35.12c0-1.73,1.4-3.13,3.13-3.13h2.74
	c1.73,0,3.13,1.4,3.13,3.13v149.33C35.35,186.19,33.95,187.59,32.22,187.59z"/>
<path class="st1" d="M46.45,187.59h-2.74c-1.73,0-3.13-1.4-3.13-3.13V35.12c0-1.73,1.4-3.13,3.13-3.13h2.74
	c1.73,0,3.13,1.4,3.13,3.13v149.33C49.58,186.19,48.18,187.59,46.45,187.59z"/>
<path class="st1" d="M60.68,188.24h-2.74c-1.73,0-3.13-1.4-3.13-3.13V35.78c0-1.73,1.4-3.13,3.13-3.13h2.74
	c1.73,0,3.13,1.4,3.13,3.13v149.33C63.81,186.84,62.41,188.24,60.68,188.24z"/>
<path class="st1" d="M73.87,187.59h-2.74c-1.73,0-3.13-1.4-3.13-3.13V35.12c0-1.73,1.4-3.13,3.13-3.13h2.74
	c1.73,0,3.13,1.4,3.13,3.13v149.33C77.01,186.19,75.6,187.59,73.87,187.59z"/>
<path class="st3" d="M85.31,200.19h-2.38c-0.74,0-1.34-0.6-1.34-1.34V20.73c0-0.74,0.6-1.34,1.34-1.34h2.38
	c0.74,0,1.34,0.6,1.34,1.34v178.12C86.65,199.59,86.05,200.19,85.31,200.19z"/>
<path class="st1" d="M236.95,11.96c0.08,9.92,0.15,19.85,0.23,29.77c-0.61,0-1.22,0-1.83,0c-0.13-9.92-0.27-19.85-0.4-29.77
	c0-0.45-0.05-2.82-1.97-4.74c-1.22-1.22-2.89-1.97-4.74-1.97H80.56c-3.7,0-6.71,3.01-6.71,6.71c-0.09,7.82-0.18,15.64-0.27,23.46
	c-0.65,0.03-1.3,0.07-1.96,0.1c0.08-7.85,0.15-15.71,0.23-23.56c0.02-0.73,0.18-3.78,2.55-6.15c1.58-1.58,3.75-2.55,6.15-2.55
	h147.68C233.04,3.25,236.95,7.16,236.95,11.96z"/>
<g>
	<path d="M247.62,60.62l-10.27,10.27c-0.5,0.5-1.3,0.5-1.8,0l-10.27-10.27"/>
	<path d="M248.68,60.62h-24.15c-0.75,0-1.37-0.61-1.37-1.37V43.1c0-0.75,0.61-1.37,1.37-1.37h24.15c0.75,0,1.37,0.61,1.37,1.37
		v16.15C250.05,60.01,249.43,60.62,248.68,60.62z"/>
</g>
<path class="st4" d="M35.22-61.04"/>
<path class="st4" d="M197.33,86.09"/>
<path class="st1" d="M263.31,76.3c0.7,3.32,1.04,6.88,1.01,10.68c0,26.39-14.65,41.47-41.62,41.47c-4.93,0-9.57-0.15-12.76-0.73
	c0-13.88,0-27.77,0-41.65c0-3.26,0-6.52,0-9.78h-12.62v61.14c6.38,0.73,13.92,1.16,22.91,1.16c19,0,34.08-4.93,43.21-14.07
	c9.14-8.99,14.07-22.04,14.07-37.99c0-3.66-0.28-7.06-0.81-10.25H263.31z"/>
</svg>
