<svg xmlns="http://www.w3.org/2000/svg" xmlns:xlink="http://www.w3.org/1999/xlink" width="32" height="32" viewBox="0 0 32 32">
  <defs>
    <clipPath id="clip-path">
      <rect width="32" height="32" fill="none"/>
    </clipPath>
  </defs>
  <g id="Icon_-_Share" data-name="Icon - Share" clip-path="url(#clip-path)">
    <rect id="Square" width="32" height="32" fill="none"/>
    <path id="Icon_-_Share-2" data-name="Icon - Share" d="M2254.068-1926.932c-.52-4.88-6.463-5.834-9.773-3.452a24.636,24.636,0,0,0-6.232-2.822,8.26,8.26,0,0,0,.762-2.776,1.1,1.1,0,0,0,.031-.313,1.072,1.072,0,0,0-.036-.35,5.5,5.5,0,0,0-.379-1.544c2.016-1.386,4.178-2.615,6.272-3.9a5.971,5.971,0,0,0,4.269,1.524c3.445-.153,5.424-2.981,5.74-6.166a1.108,1.108,0,0,0,.031-.313,1.088,1.088,0,0,0-.037-.35c-.753-7.058-12.865-5.905-11.908,1.672a5.879,5.879,0,0,0,.59,1.917c-2.051,1.25-4.159,2.454-6.124,3.812a1.009,1.009,0,0,0-.081.069c-3.464-3.059-11.046-1.1-10.281,4.95a5.918,5.918,0,0,0,6.174,5.157,5.505,5.505,0,0,0,3.7-1.577c1.893.71,4.322,1.365,6.047,2.588a5.441,5.441,0,0,0-.668,3.546,5.918,5.918,0,0,0,6.174,5.157c3.444-.153,5.424-2.981,5.74-6.166a1.119,1.119,0,0,0,.031-.313A1.071,1.071,0,0,0,2254.068-1926.932Zm-1.465-20.111c-.138,2.149-1.291,4.155-3.621,4.328a3.769,3.769,0,0,1-4-2.969C2243.945-1950.768,2252.373-1951.6,2252.6-1947.043Zm-19.517,15.076a3.77,3.77,0,0,1-4-2.969c-1.033-5.084,7.394-5.916,7.624-1.36C2236.568-1934.146,2235.416-1932.14,2233.085-1931.967Zm15.248,9.714a3.769,3.769,0,0,1-4-2.969c-1.034-5.084,7.394-5.915,7.624-1.36C2251.816-1924.432,2250.664-1922.427,2248.333-1922.253Z" transform="translate(-2224.858 1952.097)" fill="#5fb5f6"/>
  </g>
</svg>
