<svg xmlns="http://www.w3.org/2000/svg" xmlns:xlink="http://www.w3.org/1999/xlink" width="32" height="32" viewBox="0 0 32 32">
  <defs>
    <clipPath id="clip-path">
      <rect width="32" height="32" fill="none"/>
    </clipPath>
  </defs>
  <g id="Icon_-_Star" data-name="Icon - Star" clip-path="url(#clip-path)">
    <rect id="Square" width="32" height="32" fill="none"/>
    <path id="Icon_-_Star-2" data-name="Icon - Star" d="M2405.25-1088a3.508,3.508,0,0,0-2.845-2.141,61.863,61.863,0,0,0-6.267-1.1q-1.593-2.741-3.412-5.339c-.8-1.143-1.659-2.177-3.19-2.145a3.663,3.663,0,0,0-2.966,2c-1.224,1.774-2.451,3.548-3.495,5.434-2.017.272-4.021.609-6.013,1.027-1.454.3-2.8.652-3.4,2.159a3.258,3.258,0,0,0,.7,3.4c1.32,1.569,2.963,2.877,4.365,4.391a47.64,47.64,0,0,0-.784,6.3c-.131,1.9-.621,4.2,1.129,5.5,1.628,1.212,3.3.345,4.832-.546,1.976-1.146,3.846-2.466,5.7-3.8a64.583,64.583,0,0,0,5.436,3.823c1.529.93,3.164,1.661,4.743.4,1.523-1.22,1.167-3.167,1.052-4.9a47.6,47.6,0,0,0-.809-6.492c1.384-1.542,2.9-2.953,4.294-4.483A3.322,3.322,0,0,0,2405.25-1088Zm-3.118,2.681c-.833.845-1.678,1.68-2.494,2.542-.528.559-1.6,1.375-1.793,2.156a6.7,6.7,0,0,0,.355,2.363c.192,1.163.316,2.335.414,3.509a14.43,14.43,0,0,1,.212,3.605c-.363,1.844-2.007.718-2.966.123-1.987-1.231-3.849-2.654-5.708-4.068a1.026,1.026,0,0,0-1.074,0c-1.237.894-2.478,1.784-3.75,2.629-1.1.733-2.812,2.235-4.147,2.429-1.951.284-1.152-3.505-1.07-4.58a43.814,43.814,0,0,1,.54-4.53c.233-1.273.441-1.71-.437-2.718-1.081-1.239-2.294-2.356-3.475-3.5-.528-.511-1.626-1.293-1.019-2.156.458-.652,1.839-.694,2.541-.835,1.82-.368,3.65-.679,5.493-.913l.013,0a.916.916,0,0,0,.905-.524,28.334,28.334,0,0,1,3.961-6.189c1.305-1.344,2.037.139,2.8,1.25q1.016,1.485,1.959,3.018a7.827,7.827,0,0,0,1.55,2.36c.788.544,2.662.442,3.616.609a29.561,29.561,0,0,1,3.284.651C2403.806-1087.51,2403.317-1086.526,2402.132-1085.323Z" transform="translate(-2373.436 1099.732)" fill="#ff9100"/>
  </g>
</svg>
