<svg xmlns="http://www.w3.org/2000/svg" xmlns:xlink="http://www.w3.org/1999/xlink" width="52" height="52" viewBox="0 0 52 52">
  <defs>
    <clipPath id="clip-path">
      <rect width="32.001" height="32" fill="none"/>
    </clipPath>
  </defs>
  <g id="Group_173" data-name="Group 173" transform="translate(-825 -1544)">
    <g id="Group_172" data-name="Group 172" transform="translate(824.773 1621.773)">
      <rect id="Rectangle_133" data-name="Rectangle 133" width="52" height="52" transform="translate(0.227 -77.773)" fill="#313131"/>
    </g>
    <g id="Icon_-_Warning" data-name="Icon - Warning" transform="translate(835 1554)" clip-path="url(#clip-path)">
      <rect id="Square" width="32" height="32" transform="translate(0.001)" fill="none"/>
      <path id="Icon_-_Warning-2" data-name="Icon - Warning" d="M-513.687-6584.041c-2.488-.012-5.234-1.082-5.064-4.008.087-1.494,1-2.613,1.8-3.813q1.52-2.276,3.05-4.546,3.153-4.677,6.349-9.328c1.334-1.94,2.661-4.67,5.476-4.137a4.413,4.413,0,0,1,2.756,2.166c1.043,1.5,2.069,3,3.1,4.509q3.088,4.516,6.136,9.062c1.411,2.1,4.149,4.83,3.089,7.6-.929,2.425-3.7,2.566-5.937,2.457-3.189-.156-6.442-.1-9.635.02a1.239,1.239,0,0,1-.188.007,1.168,1.168,0,0,1-.187-.007c-2.2-.078-4.392-.045-6.586-.013-1.2.019-2.4.037-3.6.037Zm20.191-2.193c1.264.061,3.4.464,4.319-.662,1.105-1.36-.878-3.392-1.6-4.466q-2.851-4.266-5.737-8.508-1.347-1.978-2.7-3.952c-.755-1.1-2.029-4-3.547-4s-2.791,2.9-3.546,4q-1.354,1.973-2.7,3.952-2.886,4.243-5.737,8.508c-.718,1.074-2.7,3.105-1.6,4.466.914,1.124,3.073.72,4.318.662,3.06-.143,6.2-.058,9.261.06,1.926-.074,3.884-.138,5.833-.138C-495.775-6586.312-494.63-6586.29-493.5-6586.234Zm-10.38-3.015v-2.184a1.06,1.06,0,0,1,2.118,0v2.184a1,1,0,0,1-1.058,1.023A1,1,0,0,1-503.876-6589.249Zm.2-5.149a44.256,44.256,0,0,1-.2-7.047c.1-1.353,2.221-1.359,2.118,0a44.328,44.328,0,0,0,.2,7.047.9.9,0,0,1-.971,1.016A1.106,1.106,0,0,1-503.677-6594.4Z" transform="translate(518.759 6612.941)" fill="#f6f6f6" stroke="rgba(0,0,0,0)" stroke-width="1"/>
    </g>
  </g>
</svg>
