<svg xmlns="http://www.w3.org/2000/svg" xmlns:xlink="http://www.w3.org/1999/xlink" width="32" height="32" viewBox="0 0 32 32">
  <defs>
    <clipPath id="clip-path">
      <rect width="32" height="32" fill="none"/>
    </clipPath>
  </defs>
  <g id="Icon_-_Backward" data-name="Icon - Backward" clip-path="url(#clip-path)">
    <rect id="Square" width="32" height="32" fill="none"/>
    <path id="Icon_-_Backward-2" data-name="Icon - Backward" d="M2110.452-2080.245a12.059,12.059,0,0,0-6.737-8.67,19.4,19.4,0,0,0-5.689-2,31.617,31.617,0,0,0-4.419-.244,7.523,7.523,0,0,0-.594-4.634c-1.1-1.792-2.881-1.056-4.064.148a74.345,74.345,0,0,0-5.044,5.842c-.8,1-1.568,2.029-2.288,3.09a14.252,14.252,0,0,0-2.064,3.24,2.581,2.581,0,0,0,.837,2.486c.977,1.143,1.939,2.29,2.882,3.462a44.388,44.388,0,0,0,5.735,6.016c1.246,1.063,3.157,1.5,4.053-.3a7.889,7.889,0,0,0,.3-3.309c.01-1.191,0-2.382.02-3.572,2.359-.151,5.7-.3,7.031,1.459,1.63,2.158-.322,4.412-1.654,6.118a34.134,34.134,0,0,1-3.922,4.413,1.08,1.08,0,0,0,.755,1.824C2103.542-2064.478,2111.887-2071.958,2110.452-2080.245Zm-12.1,13c1.042-1.181,2-2.444,2.933-3.693,1.526-2.052,2.586-4.422,1.288-6.9-1.831-3.494-6.873-3.111-10.228-2.936a1.094,1.094,0,0,0-1.068,1.068c-.071,1.626-.035,3.253-.052,4.88,0,.29.156,1.25-.034,1.494-.426.544-.764.126-1.128-.1a12.163,12.163,0,0,1-1.943-1.855,47.83,47.83,0,0,1-3.333-3.756c-.61-.759-1.209-1.527-1.836-2.272-.271-.322-.578-.625-.835-.958-.408-.529-.385-.4-.2-.971.448-1.392,1.909-2.96,2.784-4.121,1.029-1.364,2.139-2.662,3.265-3.945.334-.381,2.678-3.57,3.212-3.412.716.211.278,3.726.143,4.305a1.01,1.01,0,0,0,.224.932,1.018,1.018,0,0,0,.806.421c3.192.146,6,.1,9,1.39,3.165,1.355,5.793,3.4,6.785,6.832C2109.971-2074.467,2104.4-2068.475,2098.349-2067.241Z" transform="translate(-2079.465 2096.868)" fill="#141414"/>
  </g>
</svg>
