<svg xmlns="http://www.w3.org/2000/svg" xmlns:xlink="http://www.w3.org/1999/xlink" width="32" height="32" viewBox="0 0 32 32">
  <defs>
    <clipPath id="clip-path">
      <rect width="32" height="32" fill="none"/>
    </clipPath>
  </defs>
  <g id="Icon_-_User_2" data-name="Icon - User_2" clip-path="url(#clip-path)">
    <rect id="Square" width="32" height="32" fill="none"/>
    <path id="Icon_-_User_2-2" data-name="Icon - User_2" d="M2541.447-2476.017c-1.091-.622-2.447-.653-1.889-2.052a13.61,13.61,0,0,0,1.14-3.615,9.373,9.373,0,0,0-1.78-6.8,8.318,8.318,0,0,0-11.562-1.292,8.706,8.706,0,0,0-3.052,5.888,10.311,10.311,0,0,0,.256,3.567c.246.97,1.6,2.752.817,3.423a12.193,12.193,0,0,1-1.807.884,16.552,16.552,0,0,0-1.687,1.111,15.006,15.006,0,0,0-2.724,2.6,11.678,11.678,0,0,0-2.65,7.1,1.073,1.073,0,0,0,1.059,1.059c4.851,0,9.7.11,14.545.233a1.231,1.231,0,0,0,.2.015h.393a1.143,1.143,0,0,0,.133-.013c4.871-.124,9.738-.235,14.611-.235a1.072,1.072,0,0,0,1.059-1.059C2548.381-2469.878,2545.419-2473.753,2541.447-2476.017Zm-19.065,3.41a14.439,14.439,0,0,1,3.148-2.052c.9-.437,2.141-.65,2.543-1.7s-.326-1.913-.786-2.782a7.948,7.948,0,0,1-.824-5.013,5.944,5.944,0,0,1,6.044-5.2,5.934,5.934,0,0,1,6.045,5.2,7.948,7.948,0,0,1-.824,5.013c-.462.871-1.2,1.716-.786,2.782.4,1.047,1.642,1.26,2.543,1.7a14.591,14.591,0,0,1,3.148,2.052,10.354,10.354,0,0,1,3.666,6.351c-4.6.016-9.194.119-13.792.237-4.6-.117-9.192-.221-13.792-.237A10.381,10.381,0,0,1,2522.382-2472.607Z" transform="translate(-2516.508 2493.544)" fill="#141414"/>
  </g>
</svg>
